<?xml version="1.0" encoding="UTF-8"?>
<svg id="Layer_2" data-name="Layer 2" xmlns="http://www.w3.org/2000/svg" viewBox="0 0 951.41 191.56">
  <defs>
    <style>
      .cls-1 {
        font-family: Futura-Black-Bold, Futura-Black;
        font-size: 162.03px;
        font-weight: 700;
      }

      .cls-2, .cls-3 {
        stroke-width: 0px;
      }

      .cls-3 {
        fill: #4b85f3;
      }
    </style>
  </defs>
  <g id="Layer_1-2" data-name="Layer 1">
    <path class="cls-2" d="M0,153.18V8.5h30.14c22.47,0,38.36,1.05,47.69,3.16,9.32,2.11,17.51,5.63,24.56,10.57,9.16,6.39,16.11,14.58,20.85,24.56,4.74,9.98,7.12,21.36,7.12,34.15s-2.37,24.16-7.12,34.15c-4.74,9.98-11.7,18.17-20.85,24.56-6.98,4.88-14.96,8.35-23.92,10.43-8.96,2.08-22.86,3.11-41.71,3.11H0ZM39.04,120.77h6.62c15.48,0,26.78-3.18,33.9-9.54,7.12-6.36,10.67-16.46,10.67-30.29s-3.56-23.98-10.67-30.44c-7.12-6.46-18.42-9.69-33.9-9.69h-6.62v79.95Z"/>
    <path class="cls-3" d="M698.26,53.37v51c0,11.27-.91,19.62-2.72,25.05-1.81,5.44-4.86,10.26-9.14,14.48-4.42,4.42-9.92,7.71-16.5,9.88-6.59,2.17-14.33,3.26-23.22,3.26s-16.52-1.09-23.08-3.26c-6.56-2.17-12.14-5.47-16.75-9.88-4.28-4.08-7.31-8.88-9.09-14.38-1.78-5.5-2.67-13.89-2.67-25.15v-51h33.6v53.27c0,8.37,1.38,14.41,4.15,18.14,2.77,3.72,7.25,5.58,13.44,5.58s10.76-1.83,13.49-5.48c2.73-3.66,4.1-9.73,4.1-18.23v-53.27h34.39Z"/>
    <path class="cls-3" d="M712.02,153.18V53.37h32.22v20.26c4.68-8.1,10.08-14.03,16.21-17.79,6.13-3.76,13.47-5.63,22.04-5.63,6.46,0,12.21,1.04,17.25,3.11,5.04,2.08,9.14,5.06,12.3,8.94,2.63,3.36,4.51,7.45,5.63,12.25,1.12,4.81,1.68,11.99,1.68,21.54v57.12h-35.28v-53.47c0-7.97-1.3-13.77-3.9-17.39-2.6-3.62-6.77-5.44-12.5-5.44-7.31,0-12.65,2.7-16.01,8.1-3.36,5.4-5.04,14.17-5.04,26.29v41.9h-34.59Z"/>
    <path class="cls-3" d="M832.81,153.18V0h34.59v96.95l36.27-43.58h43.68l-44.87,48.03,48.92,51.79h-46.35l-37.65-44.37v44.37h-34.59Z"/>
    <text class="cls-1" transform="translate(252.28 153.18)"><tspan x="0" y="0">t</tspan></text>
    <path class="cls-2" d="M428.74,46.48c-.02-1.42-1.16-2.56-2.54-2.53-7.57.13-15.13.26-22.7.39-1.38.02-2.47,1.18-2.46,2.59l.07,5.87c-32.86-27.39-79.07,4.54-78.68,43.52-.79,41.18,40.78,66.79,78.33,50.28.74-.27,1.21-.6,1.41-.99l.06,5.04c.02,1.41,1.13,2.53,2.5,2.53,7.56-.01,15.11-.03,22.67-.04,1.39,0,2.51-1.17,2.5-2.59l-1.16-104.07ZM372.78,121.64c-18.33-2.85-27.04-26.66-14.38-40.67,13.27-15.53,37.37-10.83,43.15,9.16l.16,13.75c-5.2,13.89-14.83,19.82-28.92,17.76Z"/>
    <path class="cls-2" d="M246.75,45.72c-.02-1.42-1.16-2.56-2.54-2.53-7.57.13-15.13.26-22.7.39-1.38.02-2.47,1.18-2.46,2.59l.07,5.87c-32.86-27.39-79.07,4.54-78.68,43.52-.79,41.18,40.78,66.79,78.33,50.28.74-.27,1.21-.6,1.41-.99l.06,5.04c.02,1.41,1.13,2.53,2.5,2.53,7.56-.01,15.11-.03,22.67-.04,1.39,0,2.51-1.17,2.5-2.59l-1.16-104.07ZM190.78,120.88c-18.33-2.85-27.04-26.66-14.38-40.67,13.27-15.53,37.37-10.83,43.15,9.16l.16,13.75c-5.2,13.89-14.83,19.82-28.92,17.76Z"/>
    <text class="cls-1" transform="translate(252.28 153.18)"><tspan x="0" y="0">t</tspan></text>
    <path class="cls-3" d="M539.28,8.5v44.93s.03-.02.05-.03v8.71h0c0,.57.04,1.18,0,1.75-.02.1-.05.21-.08.3-.05.11-.12.21-.18.31-.03.05-.06.1-.1.14,0,0-.01.02-.02.03-.16.18-.33.36-.51.52-.1.09-.19.17-.29.25-.01.01-.03.02-.04.03-.94.68-1.97,1.23-3.04,1.69-3.48,1.43-7.24,2.2-10.96,2.72-.01,0-.03,0-.04,0-5.8.77-11.71.89-17.55.46-1.53-.11-3.05-.27-4.57-.47-3.72-.52-7.47-1.29-10.96-2.72-1.07-.47-2.09-1.01-3.04-1.69-.01-.01-.03-.03-.05-.03-.1-.08-.19-.16-.29-.25-.18-.16-.35-.34-.51-.52,0,0-.01-.01-.01-.02-.03-.04-.06-.09-.09-.13-.07-.11-.13-.22-.19-.33-.03-.1-.06-.2-.08-.29-.03-.46,0-.93,0-1.39v-1.12s-.03-.02-.05-.04V8.5h-39.43v144.68h39.43v-53.28s.03.02.05.03v-.31c.14.09.29.17.44.25.05.03.1.05.15.08.19.1.39.21.58.31.05.02.09.05.14.07.32.16.64.31.96.44,2.03.88,4.14,1.55,6.29,2.06.02,0,.04.01.06.01.13.03.26.06.39.09.05.01.12.03.17.04.16.04.34.08.5.11,2.42.53,4.87.88,7.32,1.14,1.44.16,2.89.27,4.34.36.94.05,1.88.08,2.81.1,1.81.04,3.61.03,5.42-.03,1.36-.05,2.7-.13,4.04-.25.86-.07,1.73-.15,2.6-.25,1.79-.21,3.57-.47,5.33-.81,1.94-.37,3.89-.83,5.77-1.44.15-.05.3-.1.44-.15.18-.06.36-.12.53-.18.07-.03.14-.05.21-.08.03-.01.06-.02.09-.03.1-.03.19-.07.28-.11.78-.29,1.56-.62,2.32-.99.5-.29.96-.57,1.34-.81v.08s.03-.02.05-.03v8.71h0c0,.57.04,1.18,0,1.75-.01.06-.03.12-.05.19v42.92h39.53V8.5h-39.53Z"/>
  </g>
</svg>